<?xml version="1.0" encoding="UTF-8"?><svg id="Layer_2" xmlns="http://www.w3.org/2000/svg" viewBox="0 0 550 309.38"><defs><style>.cls-1{fill:none;stroke:#cefa05;stroke-miterlimit:10;stroke-width:.39px;}.cls-2{fill:#cefa05;}</style></defs><path class="cls-1" d="M234.97,197.62c.27-.75.27-1.1.4-1.5l.04-1.72c.75-.17,0-1.9.8-1.9q-.18-.93-.61-2.47c.49-.58.97-.75.98-1.32-.93-.35-1.06-1.55-1.23-1.9.18,0,.18-.8.18-1.15-.17-.4-.39-1.55-.13-2.08-1.63-3.09-4.58-4.65-6.34-6.59-.49,0-.31.62-.62,0-.62-.75-1.19,0-1.95,0-1.32-.04-2.25-1.2-3.44-1.55-.75,0-1.63.7-2.25-.45.54-4.94,1.08-8.92,2.46-13.86,0-.57-.44-.4-.44-.75.44.18.45-.75.62-.75.5-4.02,1.74-7.82,1.79-12.01.89-1.85,1.87-4.94,1.43-7.19,1.69-4.77,2.41-11.61,3.79-16.55.09-4.33,1.42-4.55,1.3-8.52,2.22-6.09.78-11.08,1.19-17.7-.75-.58-1.32-1.9-1.05-2.83-1.01-.84-1.01-1.94-1.76-2.74-.58.4-1.19-1.55-1.76-2.12.62.22.44-.57.62-1.32-2.02-3.8-7.15-2.93-10.15-3.91.62-.57,1.37-1.54,1.24-2.29-.79.22-1.24,1.5-1.81.75-1.2,1.15-1.82,3-3.32,3.75-.31.75-.98,2.29-1.82,2.29-2.97,5.47-6.6,10.01-10.41,15.47-1.11,2.65-2.62,5.07-4.43,7.14.17.79-.31.79-.49,1.37-2.92,2.6-4.61,7.36-7.31,10.76-.8,2.25-2.18,3.57-2.8,5.87-2.43,2.64-3.55,6.97-5.94,9.83-1.42,4.72-4.3,6.39-5.54,11.34-3.05,3-4.78,7.94-7.62,10.93-.54,3.62-2.79,3.97-3.28,6.84-.27,0-.44-.22-.57-.22,0,.57-.49,1.54-.93,1.89-2.8,5.69-7.18,10.18-9.93,16.62-.93-.4-1.15,2.07-2.3,2.07-.18,2.12-2.12,1.89-2.61,3.62-.4.18-.4,0-1.02-.22-.49.17-.31.97-.49.97-3.89,1.27-5.57,2.37-8.57,3.3-.14.35-.14.93-.62.93-2.08,0-4.06.34-5.39,1.44l-.22.13c.58-1.37,1.16-2.56,1.73-3.57.49-1.45,1.2-3.53,2.09-4.46-.13-.88.71-2.03,1.2-2.43,4.21-7.76,7.76-18,13.04-24.78-.13-.44.44-1.24.14-1.46,2.3-1.23,2.57-5.03,5.22-5.99-.09-.84.05-.84.09-1.68.75-.52,1.81-1.27,1.42-2.6-.71.57-1.28,1.32-1.86,2.11,6.34-11.11,14.26-21.43,21-31.44.4-.79-.84-.13-.44-.93.98-1.37,1.64-3.18,3.19-4.1.22-2.08,1.51-1.94,1.55-4.24.53-.18.58-.79,1.02-.53-.04-1.5,1.42-2.38,1.16-4.99.49.09.58-.97,1.06-.92,1.95-3.35,5.18-5.73,6.03-9.48-.31-.44-.58.79-1.37.48-.79-2.65,1.29-3.7,2.09-5.07.53-.57.66-1.63,1.02-2.21.8-1.41,2.57-2.02,2.65-3.53-.44-.49-1.67-.18-1.58-1.28.35.09.22-.79.71-.53,1.37-2.21,1.78-4.9,2.8-6.89.22-.62,1.01-.52.44-1.45-.35.62-.75,1.63-1.41,1.1.14-1.72-.39-3.71,1.11-4.81-.39-1.5,1.86-2.51,1.69-4.46-.66-.27-1.59.48-1.81-.22.4-1.02,1.86-.39,2.04-2.29-.84-.35-1.32-.58-2.34-.54.04-.18.09-.61-.26-.88-.31,0-.66-.05-.89.31.04-.4.09-1.24-.22-1.28-8.84,5.68-16.1,13.48-23.45,21.1-.04.62-.09,1.06-.31,1.46-.88.71-1.59,1.5-2.7,2.2-.58,2.91-3.32,3.84-4.25,6.93-.66.13-.75.97-1.64.83-.31,1.9-1.55,2.6-2.44,3.53-.09.66-.4.62-.27,1.28-1.06.48-1.33,1.54-2.34,1.85-12.05,19.14-26.17,35.05-38.71,54.14-.18.18-.53.14-.88.09-.18.4.18.44.08.88-2.83,4.15-5.45,9.31-8.64,13.23-.56-5.43-1.39-11.35-3.68-15.9.05-.62.4-.57.22-1.06-1.75-4.9-1.56-11.08-3.89-15.42-.3-2.21-2.03-3.49-1.8-6.01q-.71-.14-.84-.31c-.66-2.03-1.54-3.63-2.55-5.48-.66-.26-.53.13-.88.31-1.58-3.18-8.07-7.43-10.44-9.87-.04.84-.4.79-.88.71-.92-.75-1.28-.58-2.56-1.2-.04.44-.27.88-.57.84-.27.8.48.27.44,1.1-2.21-.49-3.32,1.49-5.39.12-.31,1.06-.89,1.81-1.03,3.53.75,1.15.39,3.27.12,4.5.88.09.39,1.54.66,2.43l-.71-.09c-.23.84-.04.84-.09,1.06-2.97,3.7-4.43,9.26-7.57,12.26-1.2,2.21-1.16,3.09-2.31,5.07-.35-.04-1.91,3.53-1.91,3.75-2.7,3.48-3.68,7.1-6.82,10.1-3.33,7.89-8.51,12.92-12.14,20.37-2.44,4.99-16.89,30.56-18.93,36.74-.35.35-.58,1.15-.85,2.42.27.88,1.06.97,1.32,2.08.13,2.39-1.07,7.15.78,9.32.13-.22.05-1.28.13-.66.49.53.09,1.1.4,1.59.48.04.71-.35.66.09-.44,1.41-.18,2.52-.36,4.2,1.06.13,2.21.31,2.6.98.49.09.53-.35.71-.53.13.44.22,1.1.75,1.15.57-.35.7-.31,1.54-.22,1.02-.3,2.91,1.46,3.93,1.56.71-2.25,5.75-2.46,5.8-5.2,1.9-2.73,3.5-5.51,4.96-8.78,1.28-1.54,2.79-3.04,3.94-4.85,1.68-2.12,15.42-22.66,16.92-24.82,7.71-10.62,12.1-21.88,20.15-29.81.61,4.77,1.92,9.19,1.51,13.87,1.01,1.86.52,4.11.78,6.49.17,3.67.69,7.77,1.21,11.49.35,1.99.74,5.03.16,6.01.48.49.44.93.53,1.55.44,3.05.6,6.93.38,9.5,1.67,3.84,1.92,8.97,3.99,12.46q.35.22.84.09c1.28,2.96,2.64,6.32,6.52,6.2.92.75,1.63,2.56,2.73,1.82.3,1.59.75,2.25,1.94,2.83.18-.62,1.06-.93,1.46-1.72,2.34.09,2.48-3.75,5.08-2.33-.39-1.33.62-1.24,1.11-1.55-.35-3.27.85-5.92,1.74-8.78,1.55-1.94,2.79-4.54,3.99-7.15l.66-1.19c2.69.18,5.96-.56,8.75-.51-2.39,3.57-4.39,6.79-6.73,10.18h-1.19c.13,1.5-.89,2.65-1.68,2.78-1.07,2.69.88,3.09,1.62,4.46l-.05,2.87c.44-.22,1.19.58,1.37,1.11.13-.53-.17-.97,0-1.11.31.13.13.93.26,1.11-.26-.18-.31.58-.49.4v1.5c-.89-.18-.89.22-.89.75.39.97.57,1.19,1.32,1.2,0-.97.18-1.37.36-1.72.27.75.39,1.5.08,2.3.31.75.44-.57.93-.57,1.77.58,2.95,2.35,4.19,1.95-.31.22-.67.17-.93.4.26.53,1.81-.17,2.69.58.18-.57.58-.75,1.02-.92,1.67.97,2.74-1.1,3.75-.52.62-.75,1.68-1.5,2.48-1.32,7.88-8.64,14.44-19.62,22.1-29.63.44,0,.44.22,1.5.4,1.02-1.5,2.56-.92,3.75-1.27,3.88-.52,7.64-2.01,11.71-1.74,0-1.15.88.18.88-.35.31,0,0,.75.31.93.31-.35.31-1.1.89-1.32,4.68-.87,12.19-1.39,16.78-1.51-.5,6.31-1.99,22.12-2.23,29.53,0,.18.13,0,.13.18-.05.97-.14,1.72-.14,3.04.4,0,.39.58,1.19.22,0-.97.45-1.55.71-2.12.35,0,.3.8.79.57.62-.17,0-2.47.63-2.82,0,1.33-.19,3.45.26,4.37,1.63-1.32,1.25-5.47,3.06-6.4.31.35.49.53,0,1.28.61,0,.57,1.15.57,1.94,1.68-.75.63-3.44,2.13-4.37-.26-1.15-.26-2.12.49-2.65.13.75-.31.93.13.93.18-.18.18,0,.31.04.05-1.94,1.44-13.91,2.11-15.85,1.14,1.02-1.62,14.3-.92,15.85,1.87-4.37,5.3-20.35,5.49-25.12.61-.75.62-1.5.93-2.25.18.18.57,0,1.06,0-.13-.75.18-1.15.31-1.54,7.07-3.12,13.69-2.27,19.31-5.08M201.14,176.67c-.44,0-1.33.92-1.59-.05-.66,1.32-1.5.97-1.55,2.07-5.44,2.41-10.07,2.36-15.16,4.21v-.97c3.82-6.61,7.94-12.83,11.04-20.6,4.3-5.69,7.05-13.63,11.04-19.84-1.04,11.57-2.96,22.25-3.79,35.18"/><path class="cls-1" d="M330.82,167.95c-.31-.84-.75-1.68-1.41-2.52-1.1-1.2-3.18-2.48-4.54-3.1-3.04-1.07-6.36-1.12-9.53-1.79-2.39-.22-4.64-.85-6.58-1.07-1.2.4-2.38-.05-3.27-.05-2.25-.84-5.08-.05-6.62-.1-3.58-.63-7.33-.5-10.77-.11-.31,0-.57-.22-.88-.44-3.44.39-6.93-.5-10.64-.95-3.31-.23-6.93-.28-10.33-.55-4.77-.5-8.34-.94-12.41-1.4-1.32,0-2.56.62-2.86-.84,6.11-6.08,12.74-11.72,19.6-16.96,1.99-3.44,5.26-4.84,7.43-7.71,5.13-4.01,10.26-8.06,16.32-11.23-.31.17-.49.79-.49,1.41,1.05,2.65-1.12,6.54-.73,11.04.44.22.44-.18.75-.18.26,1.64,1.45,2.08,1.45,4.11.75.4,1.06,1.46,1.76,1.68.44,0,.31-1.24.62-1.63.48.4.92.84,1.32,1.46,1.55-1.41,2.56.45,3.93-.39-.23,1.45.88.84,1.01,1.46.75,0,.93-.79,2.12-.57,4.87-6.52,7.36-15.31,10.47-24.04q-.13-.84.05-1.86c.44,0,.31.4.57,0,0-1.24.63-2.65.18-3.89-.13-.84-1.14-2.7-1.14-2.92-.75-1.86-.25-4.11-.96-5.74-.93-.18-1.5-1.06-2.51-1.68-.31-1.41-1.32-1.81-1.94-3.09-2.83-.4-4.01-4.56-7.14-4.78-1.19-.67-2.82-1.29-4.19-1.51-4.25,3.26-8.4,4-14.14,4.74-.57.61.35.84,0,1.46-.71-.22-.44.61-.89.17-.57.44-.18,1.24-.22,1.63-2.21.83-3.58,3.26-5.57,4.05-1.5,2.43-4.2,2.42-5.61,4.85-5.26,3.61-10.26,8.06-15.69,11.05-1.82,2.47-3.37,3.44-6.19,4.23,0,.4-.05.84-.18,1.01-3.63,3.04-7.65,5.46-10.75,9.07,0-.58-.71-.23-1.02-.4-.18.62.44.4.26,1.24-3.45,3.04-6.68,7.27-8.68,11.77-.31,0-.31-.62-.57-.18-.18.35-.36.97-.18,1.81-2.13,2.64-1.78,7.15-1.35,11.65.96,6.18,2.05,12.1,5.49,15.24,1.06.4,2.07,1.07,2.82,2.08.49,0,.75.66,1.32.44,2.24,3.09,4.63,3.94,8.38,4.79.13.22.4.44.53.62,1.72-.39,2.56-.17,4.55.06,10.02,1.56,19.43.08,30.24,1.83,1.15-1.01,3.71-.52,5.38.28-5.44,2.99-10.74,6.25-16.58,9.41-3.81,4.06-9.55,7.27-14.73,10.87-2.56,2.03-5.4,4.05-8.14,5.24-.84,1.02-2.25,1.19-3.18,2.42-1.99.79-3.8,2.02-5.88,2.59-.62.61-1.06,1.41-1.51,1.8-.62.4-1.42.4-2.03,1.01-2.21,1.63-4.64,3.44-7.34,4.22-1.5,1.59-4.11,1.98-5.13,4.63-.97.18-3.36,2.42-3.8,4.06.31.22.57.62.7.84.62-1.46,2.12-1.41,3-.39.44.62.58-.61.93-.57.08,2.43-1.37,2.64-2.04,4.45,2.07,2.48,4.73-3.21,7.07-.73.31,0,.13-.8.75-.57v1.41c.75.22,1.5-.57,1.63.45,0,.62-.45,1.23-.31,1.81.93-.4,3.01-2.2,4.33-1.36,0,.22-.44.84.18.84,1.81,0,3.58.05,6-.78.31-.58,0-.58,0-1.19.44.4.75-.22,1.54-.22.09.62-.04,1.06.26,1.46,1.81-.61,3.62-1.41,4.28.27-2.47.35-4.33,1.14-6.27.34-.18,1.81,1.45,1.64,2.33,1.64,2.61-.39,5.75-1.36,8.04-1.92-.17-2.08,1.33-1.41,2.21-1.63.75,0,1.55-.79,2.29-.79.88-.17,1.81.05,2.69-.35,3.93-1.01,8.57-4.05,12.77-4.17.93-1.41,2.92-1.98,4.11-1.98.58,0,.31-.84.88-.84.88.62,1.95.05,2.57-.79,1.76.84,2.56-1.18,3.93-1.18,1.64-1.8,4.07-1.58,6.45-2.77,1.24-1.63,3.18-2.6,5.44-2.81,3.05-2.6,6.94-3.61,10.26-6.2,0,.18.31.18.49.18,3.45-3.22,7.51-2.54,10.52-5.98,2.25-.79,5.26-2.02,7.07-3.83,0,.22,0,.44.35.22,1.2-1.41,2.57-3.22,4.07-2.2q-.18-.62,0-1.24c.93-1.41,2.21-1.19,3.05-3.22.14-.4.44-.58.44-1.02.31-.22,0-.62,0-.84.49-.57,1.2-1.19,1.37-1.63,1.07-1.63,1.2-2.25,1.42-4.46.27,0,.76-.44.93-.79,0-.84-.31-1.28-.49-1.46,1.29-6.36-.72-12.94-3.54-15.82"/><path class="cls-1" d="M520.67,74.05c-.13-.75-.13-.58.22-1.15-.97,0-1.37.35-2.3.75-.13-.97-1.15-.58-1.76-.58.13-.8-.62-.58-.62-.97,0-.4.18-.58,0-1.15-1.19-.76-2.39.92-3-.58.97.18.66-.97,1.54-.18-.48-1.37-2.25-1.02-3-.27-1.06-.53-1.81.22-2.56.92h-.88c-.93.75-1.55,1.5-2.87,1.67-5.18,4.49-9.69,9.78-14.6,14.85-.58.75-1.33,1.72-1.82,2.25-.75.79-1.68,1.54-2.26,2.69-.18.18-.44.35-.75.35-3.19,3.97-6.6,7.71-9.43,12.08-.8.35-.97,1.32-1.55,1.5-.62,2.65-3.5,3.17-3.5,6.04-2.61,2.64-4.6,6.04-6.9,8.86-1.94-2.13-3.04-4.82-5.59-5.97-.39-3.05-3.39-4.6-4.53-7.69-2.6-1.77-3.83-6.32-6.34-8.8.22-.27.4-.4.66-.53.44.4.75,1.15,1.01,1.5.49.05.49-.53.62-1.1-.13-.75-.75-1.37-.44-1.9-1.45-.62-1.58-3.84-2.77-4.24.18-.75-.44-.75-.44-1.5-1.77-1.55-2.95-4.25-5.16-5.4-.31.18-.62.35-1.06.35-.88-.93-1.81-1.73-2.7-.62-1.45-.58-3.58-.05-4.77-.41-3.18-.62-6.62.25-9.76.25-2.73-.05-5.25.12-7.64.29-.62-.05-1.37-.22-1.98-.62-.31.4-.45.97-.84,1.1-7.68-.06-17.18,2.83-25.26,4.67,0,.18-.18.35-.18.35-.88.22-1.77.75-2.65.22-4.91,3.52-10.56,2.89-15.38,4.91-.49.17-.49-.4-1.06-.4-.27.35-.44,1.15-.75,1.32-5.25-.1-9.9,3.29-15.2,3.45-.18.35-.4.53-.4.93-.18-.18,0-.62-.48-.4-6.49,1.84-11.01,5.41-18.7,7.38.13.75-.31.97-.31,1.54,1.11-.79,1.99,0,2.56.4.62,0,1.5-.75,1.81,0-.66,1.15-1.24,2.47-2.3,3.22,0-.4-.44-.4-.75-.4-.26.18-.26.75-.62,1.1-3.63,1.32-7.03,2.41-10.26,5.06-.05.75-.05,1.32-.18,1.9-2.25.7-4.07,1.67-4.82,3.74.75.57.75-.75,1.33-.92,0,.93-.71.53-.58,1.68,4.2-2.2,8.4-2.72,12.64-5,.18-.53,0-.93.18-1.1.44,0,.53.4.7,1.15,1.95-1.1,3.93-1.49,6.14-1.67.31.97,1.36,1.02,2.43,1.02-.49.18-.49.35-.93.18,0,1.9-1.82,1.1-1.95,2.65-1.85.92-3.62,1.45-5.87,1.62,0,.18-.04.57-.13.57-1.81.57-3.05,1.67-5,2.02-.31.4-.48.57-.57.97-1.99.75-4.11,1.49-5.75,2.42,0-.75-.8-.4-.75-.8-.31,1.54-1.5,1.5-2.48,1.9-.4.35-.71,1.1-1.2,1.32-.75.75-1.94.92-2.43,2.25-.18.57.18.57,0,.93,2.25.45,3.57.45,6.01.1.93-.18,2.43-.35,3.14-1.1,1.94.58,3.93-.35,5.3-1.09.27.18.58.4,1.02.4.18-.4.18-1.33.8-1.5,1.63.58,3.49-1.85,5.43-1.49,1.5-1.5,3.01-1.45,4.77-2.2h1.19c1.81-.35,3.45-1.84,5.3-2.02,1.81-.17,2.7-.17,4.15-.7,0,.18,0,.58.35.58,5.52-1.09,11.09-2.14,16.03-2.3v.97c.58,0,.75-.17,1.06.22-.49.93-1.1,1.28-1.37,2.43,0,.62.58.22.26.75-.57.97-1.07,2.65-1.86,3.61.18,0,0,.58,0,.8-1.02,1.1-1.37,3-2.26,4.89-1.24,2.65-3.1,5.29-4.17,7.94-.13.4,0,.98-.13,1.33-.54,1.9-2.22,3.79-2.05,5.29-1.24,3.04-7.15,18.62-9.14,20.47-.18.75-3.86,11.6-3.73,12.13-2.31,6.26-5.1,12.13-7.46,18.97.18.75.49.4.31.93-1.64,2.87-2.98,8.96.51,9.76-.18.75.09.75.08,1.5,1.86.58,2.51,2.92,3.83,4.42,1.11-.75,1.54.05,2.43.8.31.18.31-.57.75-.57-.62,1.5.7,2.3.34,4.37,1.73-.7,2.74.63,3.93.1.62-1.94.67-3.84,1.11-5.34.31.22.18.75.62.57.13-.17.13-.57.27-.35-.13-.8.49-1.55.49-2.3.62,0,.8-.75,1.2-1.5.93-1.32,1.99-2.07,2.66-3.61.44-.93.76-2.48,1.2-3.4.93-1.9,2.3-2.64,3.23-4.14.93-2.08,1.95-3.97,2.93-5.47,1.2-3.8,2.62-6.84,4.48-9.66.26-.18.26,0,.53,0,.97-1.72,5.9-14.03,6.53-16.1,1.24-2.47,7.4-16.67,8.47-18.75.49-.75.93-.97,1.51-1.72.97-1.28,1.16-3.18,2.04-4.15.98-3.04,2.31-5.29,3.24-8.34,2.61-4.32,4.92-8.73,7.49-13.23,1.6-4.54,3.28-7.41,4.97-11.34,0,.53.31.13.57.53.31-.17.31-.71.49-.93,5.08-.47,9.58-1.79,15.15-2.09.17,0,.17-.4.31-.4.75.04,2.12.05,2.52-.35,2.25.4,4.81.28,7.2.32,2.08-.08,4.02-.35,5.92-.65.53.88,1.06,1.81,1.5,2.74.13.4.13.97.13,1.54,1.94,2.3,2.95,5.57,4.71,8.22,2.33,2.74,4,6.37,6.3,8.85,1.36,2.7,3.56,4.07,4.75,6.94,0,.35-.49.17-.79.57.31.17.31.35.48.75-2.61,3.57-4.74,7.54-7.04,11.16-.49.75-1.11,1.1-1.68,1.89-1.1,1.68-1.82,3.35-3.1,5.29-.71,1.5-.58,3.57-1.69,4.72.13.58.13.35,0,.75-8.73,14.91-13.71,32.6-20.59,49.28-1.2,4.32-2.45,8.51-3.6,13.1-.13-.4-.4-.05-.71-.05,0,.75-.31,1.15-.18,2.07.13.22.7-.18.7.22,0,.93-.57,1.32-.89,1.68.44,0,.13.97.26,1.15-.44-.18-.7-.18-1.06.4.18.35.75.18.93.36.13.79-.49.57-.49,1.19.3,2.08-2.35,5.87.38,6.85.14-1.32,1.33-1.54,1.95-1.32.76-1.32,1.38-2.47,2.75-2.82.44.58.88.97,1.5,1.37.13-.4.44-.75.57-1.32,3.14-.17,2.69.58,5.57-.69.44.36.75.58,1.33.58.48-.58.97-.93,1.54-1.32.18.18.13.58.7.58.8-.57.53-2.07,1.73-2.29,0-1.28.93-1.68,1.25-2.6.13-.4,0-.4,0-.58.27-.8,1.06-1.15.93-2.47,1.64-1.85,2.87-4.14,4.56-6.26.88-2.03,1.73-4.32,2.61-6.22.49-.75,1.24-1.5,1.64-2.47,1.24-2.25,2.35-3.97,3.41-6.04.93-1.89,1.73-3.8,3.1-5.11,4.88-8.87,9.53-18.13,14.36-26.82.18,0,.35,0,.49.18,5.36-10.19,11.16-18.74,17.9-27.56.31.53,1.06-.17,1.63-.35.14-.22.14-.61.14-.97h.62c-.13-.79.04-1.15-.26-1.32.31-.93.31-1.37.45-2.12,1.24-1.68,3.05-3.57,3.54-5.47.57.22.75-1.32,1.37-1.32,1.46-1.5,3.02-5.47,4.61-6.04.76-3,3.46-4.32,3.77-6.97,1.24-.57,1.68-1.9,2.26-3.04.48.04,1.1-.92,1.42-1.9,1.81-2.25,3.68-4.67,5.22-7.32.71-.4.89-1.37,1.51-1.5,1.82-2.65,3.63-4.94,5.49-7.19,1.2-1.54,2.13-3,3.32-4.54.75-1.1,1.99-1.45,2.17-3,.76-.93,1.46-1.72,1.95-3.04.75,0,1.06-.75,1.37-1.68.8-.75,1.99-1.67,1.86-2.82.44-.4.62-.97,1.06-1.37.45-1.68,1.38-2.6,1.56-4.32.63-3.84-2.95-5.97-4.26-9.59"/><path class="cls-2" d="M234.97,197.62c.27-.75.27-1.1.4-1.5l.04-1.72c.75-.17,0-1.9.8-1.9q-.18-.93-.61-2.47c.49-.58.97-.75.98-1.32-.93-.35-1.06-1.55-1.23-1.9.18,0,.18-.8.18-1.15-.17-.4-.39-1.55-.13-2.08-1.63-3.09-4.58-4.65-6.34-6.59-.49,0-.31.62-.62,0-.62-.75-1.19,0-1.95,0-1.32-.04-2.25-1.2-3.44-1.55-.75,0-1.63.7-2.25-.45.54-4.94,1.08-8.92,2.46-13.86,0-.57-.44-.4-.44-.75.44.18.45-.75.62-.75.5-4.02,1.74-7.82,1.79-12.01.89-1.85,1.87-4.94,1.43-7.19,1.69-4.77,2.41-11.61,3.79-16.55.09-4.33,1.42-4.55,1.3-8.52,2.22-6.09.78-11.08,1.19-17.7-.75-.58-1.32-1.9-1.05-2.83-1.01-.84-1.01-1.94-1.76-2.74-.58.4-1.19-1.55-1.76-2.12.62.22.44-.57.62-1.32-2.02-3.8-7.15-2.93-10.15-3.91.62-.57,1.37-1.54,1.24-2.29-.79.22-1.24,1.5-1.81.75-1.2,1.15-1.82,3-3.32,3.75-.31.75-.98,2.29-1.82,2.29-2.97,5.47-6.6,10.01-10.41,15.47-1.11,2.65-2.62,5.07-4.43,7.14.17.79-.31.79-.49,1.37-2.92,2.6-4.61,7.36-7.31,10.76-.8,2.25-2.18,3.57-2.8,5.87-2.43,2.64-3.55,6.97-5.94,9.83-1.42,4.72-4.3,6.39-5.54,11.34-3.05,3-4.78,7.94-7.62,10.93-.54,3.62-2.79,3.97-3.28,6.84-.27,0-.44-.22-.57-.22,0,.57-.49,1.54-.93,1.89-2.8,5.69-7.18,10.18-9.93,16.62-.93-.4-1.15,2.07-2.3,2.07-.18,2.12-2.12,1.89-2.61,3.62-.4.18-.4,0-1.02-.22-.49.17-.31.97-.49.97-3.89,1.27-5.57,2.37-8.57,3.3-.14.35-.14.93-.62.93-2.08,0-4.06.34-5.39,1.44l-.22.13c.58-1.37,1.16-2.56,1.73-3.57.49-1.45,1.2-3.53,2.09-4.46-.13-.88.71-2.03,1.2-2.43,4.21-7.76,7.76-18,13.04-24.78-.13-.44.44-1.24.14-1.46,2.3-1.23,2.57-5.03,5.22-5.99-.09-.84.05-.84.09-1.68.75-.52,1.81-1.27,1.42-2.6-.71.57-1.28,1.32-1.86,2.11,6.34-11.11,14.26-21.43,21-31.44.4-.79-.84-.13-.44-.93.98-1.37,1.64-3.18,3.19-4.1.22-2.08,1.51-1.94,1.55-4.24.53-.18.58-.79,1.02-.53-.04-1.5,1.42-2.38,1.16-4.99.49.09.58-.97,1.06-.92,1.95-3.35,5.18-5.73,6.03-9.48-.31-.44-.58.79-1.37.48-.79-2.65,1.29-3.7,2.09-5.07.53-.57.66-1.63,1.02-2.21.8-1.41,2.57-2.02,2.65-3.53-.44-.49-1.67-.18-1.58-1.28.35.09.22-.79.71-.53,1.37-2.21,1.78-4.9,2.8-6.89.22-.62,1.01-.52.44-1.45-.35.62-.75,1.63-1.41,1.1.14-1.72-.39-3.71,1.11-4.81-.39-1.5,1.86-2.51,1.69-4.46-.66-.27-1.59.48-1.81-.22.4-1.02,1.86-.39,2.04-2.29-.84-.35-1.32-.58-2.34-.54.04-.18.09-.61-.26-.88-.31,0-.66-.05-.89.31.04-.4.09-1.24-.22-1.28-8.84,5.68-16.1,13.48-23.45,21.1-.04.62-.09,1.06-.31,1.46-.88.71-1.59,1.5-2.7,2.2-.58,2.91-3.32,3.84-4.25,6.93-.66.13-.75.97-1.64.83-.31,1.9-1.55,2.6-2.44,3.53-.09.66-.4.62-.27,1.28-1.06.48-1.33,1.54-2.34,1.85-12.05,19.14-26.17,35.05-38.71,54.14-.18.18-.53.14-.88.09-.18.4.18.44.08.88-2.83,4.15-5.45,9.31-8.64,13.23-.56-5.43-1.39-11.35-3.68-15.9.05-.62.4-.57.22-1.06-1.75-4.9-1.56-11.08-3.89-15.42-.3-2.21-2.03-3.49-1.8-6.01q-.71-.14-.84-.31c-.66-2.03-1.54-3.63-2.55-5.48-.66-.26-.53.13-.88.31-1.58-3.18-8.07-7.43-10.44-9.87-.04.84-.4.79-.88.71-.92-.75-1.28-.58-2.56-1.2-.04.44-.27.88-.57.84-.27.8.48.27.44,1.1-2.21-.49-3.32,1.49-5.39.12-.31,1.06-.89,1.81-1.03,3.53.75,1.15.39,3.27.12,4.5.88.09.39,1.54.66,2.43l-.71-.09c-.23.84-.04.84-.09,1.06-2.97,3.7-4.43,9.26-7.57,12.26-1.2,2.21-1.16,3.09-2.31,5.07-.35-.04-1.91,3.53-1.91,3.75-2.7,3.48-3.68,7.1-6.82,10.1-3.33,7.89-8.51,12.92-12.14,20.37-2.44,4.99-16.89,30.56-18.93,36.74-.35.35-.58,1.15-.85,2.42.27.88,1.06.97,1.32,2.08.13,2.39-1.07,7.15.78,9.32.13-.22.05-1.28.13-.66.49.53.09,1.1.4,1.59.48.04.71-.35.66.09-.44,1.41-.18,2.52-.36,4.2,1.06.13,2.21.31,2.6.98.49.09.53-.35.71-.53.13.44.22,1.1.75,1.15.57-.35.7-.31,1.54-.22,1.02-.3,2.91,1.46,3.93,1.56.71-2.25,5.75-2.46,5.8-5.2,1.9-2.73,3.5-5.51,4.96-8.78,1.28-1.54,2.79-3.04,3.94-4.85,1.68-2.12,15.42-22.66,16.92-24.82,7.71-10.62,12.1-21.88,20.15-29.81.61,4.77,1.92,9.19,1.51,13.87,1.01,1.86.52,4.11.78,6.49.17,3.67.69,7.77,1.21,11.49.35,1.99.74,5.03.16,6.01.48.49.44.93.53,1.55.44,3.05.6,6.93.38,9.5,1.67,3.84,1.92,8.97,3.99,12.46q.35.22.84.09c1.28,2.96,2.64,6.32,6.52,6.2.92.75,1.63,2.56,2.73,1.82.3,1.59.75,2.25,1.94,2.83.18-.62,1.06-.93,1.46-1.72,2.34.09,2.48-3.75,5.08-2.33-.39-1.33.62-1.24,1.11-1.55-.35-3.27.85-5.92,1.74-8.78,1.55-1.94,2.79-4.54,3.99-7.15l.66-1.19c2.69.18,5.96-.56,8.75-.51-2.39,3.57-4.39,6.79-6.73,10.18h-1.19c.13,1.5-.89,2.65-1.68,2.78-1.07,2.69.88,3.09,1.62,4.46l-.05,2.87c.44-.22,1.19.58,1.37,1.11.13-.53-.17-.97,0-1.11.31.13.13.93.26,1.11-.26-.18-.31.58-.49.4v1.5c-.89-.18-.89.22-.89.75.39.97.57,1.19,1.32,1.2,0-.97.18-1.37.36-1.72.27.75.39,1.5.08,2.3.31.75.44-.57.93-.57,1.77.58,2.95,2.35,4.19,1.95-.31.22-.67.17-.93.4.26.53,1.81-.17,2.69.58.18-.57.58-.75,1.02-.92,1.67.97,2.74-1.1,3.75-.52.62-.75,1.68-1.5,2.48-1.32,7.88-8.64,14.44-19.62,22.1-29.63.44,0,.44.22,1.5.4,1.02-1.5,2.56-.92,3.75-1.27,3.88-.52,7.64-2.01,11.71-1.74,0-1.15.88.18.88-.35.31,0,0,.75.31.93.31-.35.31-1.1.89-1.32,4.68-.87,12.19-1.39,16.78-1.51-.5,6.31-1.99,22.12-2.23,29.53,0,.18.13,0,.13.18-.05.97-.14,1.72-.14,3.04.4,0,.39.58,1.19.22,0-.97.45-1.55.71-2.12.35,0,.3.8.79.57.62-.17,0-2.47.63-2.82,0,1.33-.19,3.45.26,4.37,1.63-1.32,1.25-5.47,3.06-6.4.31.35.49.53,0,1.28.61,0,.57,1.15.57,1.94,1.68-.75.63-3.44,2.13-4.37-.26-1.15-.26-2.12.49-2.65.13.75-.31.93.13.93.18-.18.18,0,.31.04.05-1.94,1.44-13.91,2.11-15.85,1.14,1.02-1.62,14.3-.92,15.85,1.87-4.37,5.3-20.35,5.49-25.12.61-.75.62-1.5.93-2.25.18.18.57,0,1.06,0-.13-.75.18-1.15.31-1.54,7.07-3.12,13.69-2.27,19.31-5.08M201.14,176.67c-.44,0-1.33.92-1.59-.05-.66,1.32-1.5.97-1.55,2.07-5.44,2.41-10.07,2.36-15.16,4.21v-.97c3.82-6.61,7.94-12.83,11.04-20.6,4.3-5.69,7.05-13.63,11.04-19.84-1.04,11.57-2.96,22.25-3.79,35.18"/><path class="cls-2" d="M330.82,167.95c-.31-.84-.75-1.68-1.41-2.52-1.1-1.2-3.18-2.48-4.54-3.1-3.04-1.07-6.36-1.12-9.53-1.79-2.39-.22-4.64-.85-6.58-1.07-1.2.4-2.38-.05-3.27-.05-2.25-.84-5.08-.05-6.62-.1-3.58-.63-7.33-.5-10.77-.11-.31,0-.57-.22-.88-.44-3.44.39-6.93-.5-10.64-.95-3.31-.23-6.93-.28-10.33-.55-4.77-.5-8.34-.94-12.41-1.4-1.32,0-2.56.62-2.86-.84,6.11-6.08,12.74-11.72,19.6-16.96,1.99-3.44,5.26-4.84,7.43-7.71,5.13-4.01,10.26-8.06,16.32-11.23-.31.17-.49.79-.49,1.41,1.05,2.65-1.12,6.54-.73,11.04.44.22.44-.18.75-.18.26,1.64,1.45,2.08,1.45,4.11.75.4,1.06,1.46,1.76,1.68.44,0,.31-1.24.62-1.63.48.4.92.84,1.32,1.46,1.55-1.41,2.56.45,3.93-.39-.23,1.45.88.84,1.01,1.46.75,0,.93-.79,2.12-.57,4.87-6.52,7.36-15.31,10.47-24.04q-.13-.84.05-1.86c.44,0,.31.4.57,0,0-1.24.63-2.65.18-3.89-.13-.84-1.14-2.7-1.14-2.92-.75-1.86-.25-4.11-.96-5.74-.93-.18-1.5-1.06-2.51-1.68-.31-1.41-1.32-1.81-1.94-3.09-2.83-.4-4.01-4.56-7.14-4.78-1.19-.67-2.82-1.29-4.19-1.51-4.25,3.26-8.4,4-14.14,4.74-.57.61.35.84,0,1.46-.71-.22-.44.61-.89.17-.57.44-.18,1.24-.22,1.63-2.21.83-3.58,3.26-5.57,4.05-1.5,2.43-4.2,2.42-5.61,4.85-5.26,3.61-10.26,8.06-15.69,11.05-1.82,2.47-3.37,3.44-6.19,4.23,0,.4-.05.84-.18,1.01-3.63,3.04-7.65,5.46-10.75,9.07,0-.58-.71-.23-1.02-.4-.18.62.44.4.26,1.24-3.45,3.04-6.68,7.27-8.68,11.77-.31,0-.31-.62-.57-.18-.18.35-.36.97-.18,1.81-2.13,2.64-1.78,7.15-1.35,11.65.96,6.18,2.05,12.1,5.49,15.24,1.06.4,2.07,1.07,2.82,2.08.49,0,.75.66,1.32.44,2.24,3.09,4.63,3.94,8.38,4.79.13.22.4.44.53.62,1.72-.39,2.56-.17,4.55.06,10.02,1.56,19.43.08,30.24,1.83,1.15-1.01,3.71-.52,5.38.28-5.44,2.99-10.74,6.25-16.58,9.41-3.81,4.06-9.55,7.27-14.73,10.87-2.56,2.03-5.4,4.05-8.14,5.24-.84,1.02-2.25,1.19-3.18,2.42-1.99.79-3.8,2.02-5.88,2.59-.62.61-1.06,1.41-1.51,1.8-.62.4-1.42.4-2.03,1.01-2.21,1.63-4.64,3.44-7.34,4.22-1.5,1.59-4.11,1.98-5.13,4.63-.97.18-3.36,2.42-3.8,4.06.31.22.57.62.7.84.62-1.46,2.12-1.41,3-.39.44.62.58-.61.93-.57.08,2.43-1.37,2.64-2.04,4.45,2.07,2.48,4.73-3.21,7.07-.73.31,0,.13-.8.75-.57v1.41c.75.22,1.5-.57,1.63.45,0,.62-.45,1.23-.31,1.81.93-.4,3.01-2.2,4.33-1.36,0,.22-.44.84.18.84,1.81,0,3.58.05,6-.78.31-.58,0-.58,0-1.19.44.4.75-.22,1.54-.22.09.62-.04,1.06.26,1.46,1.81-.61,3.62-1.41,4.28.27-2.47.35-4.33,1.14-6.27.34-.18,1.81,1.45,1.64,2.33,1.64,2.61-.39,5.75-1.36,8.04-1.92-.17-2.08,1.33-1.41,2.21-1.63.75,0,1.55-.79,2.29-.79.88-.17,1.81.05,2.69-.35,3.93-1.01,8.57-4.05,12.77-4.17.93-1.41,2.92-1.98,4.11-1.98.58,0,.31-.84.88-.84.88.62,1.95.05,2.57-.79,1.76.84,2.56-1.18,3.93-1.18,1.64-1.8,4.07-1.58,6.45-2.77,1.24-1.63,3.18-2.6,5.44-2.81,3.05-2.6,6.94-3.61,10.26-6.2,0,.18.31.18.49.18,3.45-3.22,7.51-2.54,10.52-5.98,2.25-.79,5.26-2.02,7.07-3.83,0,.22,0,.44.35.22,1.2-1.41,2.57-3.22,4.07-2.2q-.18-.62,0-1.24c.93-1.41,2.21-1.19,3.05-3.22.14-.4.44-.58.44-1.02.31-.22,0-.62,0-.84.49-.57,1.2-1.19,1.37-1.63,1.07-1.63,1.2-2.25,1.42-4.46.27,0,.76-.44.93-.79,0-.84-.31-1.28-.49-1.46,1.29-6.36-.72-12.94-3.54-15.82"/><path class="cls-2" d="M520.67,74.05c-.13-.75-.13-.58.22-1.15-.97,0-1.37.35-2.3.75-.13-.97-1.15-.58-1.76-.58.13-.8-.62-.58-.62-.97,0-.4.18-.58,0-1.15-1.19-.76-2.39.92-3-.58.97.18.66-.97,1.54-.18-.48-1.37-2.25-1.02-3-.27-1.06-.53-1.81.22-2.56.92h-.88c-.93.75-1.55,1.5-2.87,1.67-5.18,4.49-9.69,9.78-14.6,14.85-.58.75-1.33,1.72-1.82,2.25-.75.79-1.68,1.54-2.26,2.69-.18.18-.44.35-.75.35-3.19,3.97-6.6,7.71-9.43,12.08-.8.35-.97,1.32-1.55,1.5-.62,2.65-3.5,3.17-3.5,6.04-2.61,2.64-4.6,6.04-6.9,8.86-1.94-2.13-3.04-4.82-5.59-5.97-.39-3.05-3.39-4.6-4.53-7.69-2.6-1.77-3.83-6.32-6.34-8.8.22-.27.4-.4.66-.53.44.4.75,1.15,1.01,1.5.49.05.49-.53.62-1.1-.13-.75-.75-1.37-.44-1.9-1.45-.62-1.58-3.84-2.77-4.24.18-.75-.44-.75-.44-1.5-1.77-1.55-2.95-4.25-5.16-5.4-.31.18-.62.35-1.06.35-.88-.93-1.81-1.73-2.7-.62-1.45-.58-3.58-.05-4.77-.41-3.18-.62-6.62.25-9.76.25-2.73-.05-5.25.12-7.64.29-.62-.05-1.37-.22-1.98-.62-.31.4-.45.97-.84,1.1-7.68-.06-17.18,2.83-25.26,4.67,0,.18-.18.35-.18.35-.88.22-1.77.75-2.65.22-4.91,3.52-10.56,2.89-15.38,4.91-.49.17-.49-.4-1.06-.4-.27.35-.44,1.15-.75,1.32-5.25-.1-9.9,3.29-15.2,3.45-.18.35-.4.53-.4.93-.18-.18,0-.62-.48-.4-6.49,1.84-11.01,5.41-18.7,7.38.13.75-.31.97-.31,1.54,1.11-.79,1.99,0,2.56.4.62,0,1.5-.75,1.81,0-.66,1.15-1.24,2.47-2.3,3.22,0-.4-.44-.4-.75-.4-.26.18-.26.75-.62,1.1-3.63,1.32-7.03,2.41-10.26,5.06-.05.75-.05,1.32-.18,1.9-2.25.7-4.07,1.67-4.82,3.74.75.57.75-.75,1.33-.92,0,.93-.71.53-.58,1.68,4.2-2.2,8.4-2.72,12.64-5,.18-.53,0-.93.18-1.1.44,0,.53.4.7,1.15,1.95-1.1,3.93-1.49,6.14-1.67.31.97,1.36,1.02,2.43,1.02-.49.18-.49.35-.93.18,0,1.9-1.82,1.1-1.95,2.65-1.85.92-3.62,1.45-5.87,1.62,0,.18-.04.57-.13.57-1.81.57-3.05,1.67-5,2.02-.31.4-.48.57-.57.97-1.99.75-4.11,1.49-5.75,2.42,0-.75-.8-.4-.75-.8-.31,1.54-1.5,1.5-2.48,1.9-.4.35-.71,1.1-1.2,1.32-.75.75-1.94.92-2.43,2.25-.18.57.18.57,0,.93,2.25.45,3.57.45,6.01.1.93-.18,2.43-.35,3.14-1.1,1.94.58,3.93-.35,5.3-1.09.27.18.58.4,1.02.4.18-.4.18-1.33.8-1.5,1.63.58,3.49-1.85,5.43-1.49,1.5-1.5,3.01-1.45,4.77-2.2h1.19c1.81-.35,3.45-1.84,5.3-2.02,1.81-.17,2.7-.17,4.15-.7,0,.18,0,.58.35.58,5.52-1.09,11.09-2.14,16.03-2.3v.97c.58,0,.75-.17,1.06.22-.49.93-1.1,1.28-1.37,2.43,0,.62.58.22.26.75-.57.97-1.07,2.65-1.86,3.61.18,0,0,.58,0,.8-1.02,1.1-1.37,3-2.26,4.89-1.24,2.65-3.1,5.29-4.17,7.94-.13.4,0,.98-.13,1.33-.54,1.9-2.22,3.79-2.05,5.29-1.24,3.04-7.15,18.62-9.14,20.47-.18.75-3.86,11.6-3.73,12.13-2.31,6.26-5.1,12.13-7.46,18.97.18.75.49.4.31.93-1.64,2.87-2.98,8.96.51,9.76-.18.75.09.75.08,1.5,1.86.58,2.51,2.92,3.83,4.42,1.11-.75,1.54.05,2.43.8.31.18.31-.57.75-.57-.62,1.5.7,2.3.34,4.37,1.73-.7,2.74.63,3.93.1.62-1.94.67-3.84,1.11-5.34.31.22.18.75.62.57.13-.17.13-.57.27-.35-.13-.8.49-1.55.49-2.3.62,0,.8-.75,1.2-1.5.93-1.32,1.99-2.07,2.66-3.61.44-.93.76-2.48,1.2-3.4.93-1.9,2.3-2.64,3.23-4.14.93-2.08,1.95-3.97,2.93-5.47,1.2-3.8,2.62-6.84,4.48-9.66.26-.18.26,0,.53,0,.97-1.72,5.9-14.03,6.53-16.1,1.24-2.47,7.4-16.67,8.47-18.75.49-.75.93-.97,1.51-1.72.97-1.28,1.16-3.18,2.04-4.15.98-3.04,2.31-5.29,3.24-8.34,2.61-4.32,4.92-8.73,7.49-13.23,1.6-4.54,3.28-7.41,4.97-11.34,0,.53.31.13.57.53.31-.17.31-.71.49-.93,5.08-.47,9.58-1.79,15.15-2.09.17,0,.17-.4.31-.4.75.04,2.12.05,2.52-.35,2.25.4,4.81.28,7.2.32,2.08-.08,4.02-.35,5.92-.65.53.88,1.06,1.81,1.5,2.74.13.4.13.97.13,1.54,1.94,2.3,2.95,5.57,4.71,8.22,2.33,2.74,4,6.37,6.3,8.85,1.36,2.7,3.56,4.07,4.75,6.94,0,.35-.49.17-.79.57.31.17.31.35.48.75-2.61,3.57-4.74,7.54-7.04,11.16-.49.75-1.11,1.1-1.68,1.89-1.1,1.68-1.82,3.35-3.1,5.29-.71,1.5-.58,3.57-1.69,4.72.13.58.13.35,0,.75-8.73,14.91-13.71,32.6-20.59,49.28-1.2,4.32-2.45,8.51-3.6,13.1-.13-.4-.4-.05-.71-.05,0,.75-.31,1.15-.18,2.07.13.22.7-.18.7.22,0,.93-.57,1.32-.89,1.68.44,0,.13.97.26,1.15-.44-.18-.7-.18-1.06.4.18.35.75.18.93.36.13.79-.49.57-.49,1.19.3,2.08-2.35,5.87.38,6.85.14-1.32,1.33-1.54,1.95-1.32.76-1.32,1.38-2.47,2.75-2.82.44.58.88.97,1.5,1.37.13-.4.44-.75.57-1.32,3.14-.17,2.69.58,5.57-.69.44.36.75.58,1.33.58.48-.58.97-.93,1.54-1.32.18.18.13.58.7.58.8-.57.53-2.07,1.73-2.29,0-1.28.93-1.68,1.25-2.6.13-.4,0-.4,0-.58.27-.8,1.06-1.15.93-2.47,1.64-1.85,2.87-4.14,4.56-6.26.88-2.03,1.73-4.32,2.61-6.22.49-.75,1.24-1.5,1.64-2.47,1.24-2.25,2.35-3.97,3.41-6.04.93-1.89,1.73-3.8,3.1-5.11,4.88-8.87,9.53-18.13,14.36-26.82.18,0,.35,0,.49.18,5.36-10.19,11.16-18.74,17.9-27.56.31.53,1.06-.17,1.63-.35.14-.22.14-.61.14-.97h.62c-.13-.79.04-1.15-.26-1.32.31-.93.31-1.37.45-2.12,1.24-1.68,3.05-3.57,3.54-5.47.57.22.75-1.32,1.37-1.32,1.46-1.5,3.02-5.47,4.61-6.04.76-3,3.46-4.32,3.77-6.97,1.24-.57,1.68-1.9,2.26-3.04.48.04,1.1-.92,1.42-1.9,1.81-2.25,3.68-4.67,5.22-7.32.71-.4.89-1.37,1.51-1.5,1.82-2.65,3.63-4.94,5.49-7.19,1.2-1.54,2.13-3,3.32-4.54.75-1.1,1.99-1.45,2.17-3,.76-.93,1.46-1.72,1.95-3.04.75,0,1.06-.75,1.37-1.68.8-.75,1.99-1.67,1.86-2.82.44-.4.62-.97,1.06-1.37.45-1.68,1.38-2.6,1.56-4.32.63-3.84-2.95-5.97-4.26-9.59"/></svg>